<svg width="120" height="24" viewBox="0 0 120 24" fill="none" xmlns="http://www.w3.org/2000/svg">
<path d="M7.32489 18.923L8.56489 13.61L4.44189 10.038L9.87289 9.56801L11.9999 4.55701L14.1269 9.56701L19.5569 10.037L15.4339 13.609L16.6749 18.922L11.9999 16.102L7.32489 18.923Z" fill="#FACC15"/>
<path d="M31.3249 18.923L32.5649 13.61L28.4419 10.038L33.8729 9.56801L35.9999 4.55701L38.1269 9.56701L43.5569 10.037L39.4339 13.609L40.6749 18.922L35.9999 16.102L31.3249 18.923Z" fill="#FACC15"/>
<path d="M55.3249 18.923L56.5649 13.61L52.4419 10.038L57.8729 9.56801L59.9999 4.55701L62.1269 9.56701L67.5569 10.037L63.4339 13.609L64.6749 18.922L59.9999 16.102L55.3249 18.923Z" fill="#FACC15"/>
<path d="M79.3249 18.923L80.5649 13.61L76.4419 10.038L81.8729 9.56801L83.9999 4.55701L86.1269 9.56701L91.5569 10.037L87.4339 13.609L88.6749 18.922L83.9999 16.102L79.3249 18.923Z" fill="#FACC15"/>
<path d="M103.325 18.923L104.565 13.61L100.442 10.038L105.873 9.56801L108 4.55701L110.127 9.56701L115.557 10.037L111.434 13.609L112.675 18.922L108 16.102L103.325 18.923Z" fill="#FACC15"/>
</svg>
